# xmcd
#
# Track frame offsets:
#	150
#	19075
#	42416
#	62195
#	82358
#	102530
#	125402
#	144813
#	167845
#	187966
#	206335
#	226661
#
# Disc length: 3353 seconds
#
# Revision: 1
# Processed by: cddbd v1.5.2PL0 Copyright (c) Steve Scherf et al.
# Submitted via: audiograbber 1.83.01
#
DISCID=a10d170c
DTITLE=Jakob Zomer and Marcel Flemr - Present Themselves
DYEAR=2014
DGENRE=Blues
TTITLE0=When I get drunk
TTITLE1=Get out of my life woman
TTITLE2=Lonely avenue
TTITLE3=I got all you really need
TTITLE4=I got a woman
TTITLE5=Honey bee
TTITLE6=It should have been me
TTITLE7=Honey hush
TTITLE8=Call everybody sweetheart
TTITLE9=Leave my woman alone
TTITLE10=Well you left me baby
TTITLE11=You dont know me
EXTD=
EXTT0=
EXTT1=
EXTT2=
EXTT3=
EXTT4=
EXTT5=
EXTT6=
EXTT7=
EXTT8=
EXTT9=
EXTT10=
EXTT11=
PLAYORDER=
